<?xml version="1.0" encoding="UTF-8" standalone="no"?>
<!-- Created with Inkscape (http://www.inkscape.org/) -->

<svg
   width="200mm"
   height="175mm"
   viewBox="0 0 200 175"
   version="1.1"
   id="svg5"
   inkscape:version="1.2.2 (732a01da63, 2022-12-09)"
   sodipodi:docname="PD.svg"
   inkscape:export-filename="C:\Users\pavel\Documents\PD.png"
   inkscape:export-xdpi="413.7525"
   inkscape:export-ydpi="413.7525"
   xmlns:inkscape="http://www.inkscape.org/namespaces/inkscape"
   xmlns:sodipodi="http://sodipodi.sourceforge.net/DTD/sodipodi-0.dtd"
   xmlns="http://www.w3.org/2000/svg"
   xmlns:svg="http://www.w3.org/2000/svg">
  <sodipodi:namedview
     id="namedview7"
     pagecolor="#505050"
     bordercolor="#eeeeee"
     borderopacity="1"
     inkscape:pageshadow="0"
     inkscape:pageopacity="0"
     inkscape:pagecheckerboard="0"
     inkscape:document-units="mm"
     showgrid="false"
     inkscape:zoom="0.5"
     inkscape:cx="626"
     inkscape:cy="510"
     inkscape:window-width="1920"
     inkscape:window-height="1017"
     inkscape:window-x="1912"
     inkscape:window-y="-8"
     inkscape:window-maximized="1"
     inkscape:current-layer="layer1"
     inkscape:showpageshadow="0"
     inkscape:deskcolor="#505050" />
  <defs
     id="defs2" />
  <g
     inkscape:label="Layer 1"
     inkscape:groupmode="layer"
     id="layer1">
    <g
       id="g8183"
       style="fill:#ffff00"
       transform="matrix(0.96148209,0,0,0.96148209,-1.477403,-39.035703)">
      <path
         id="path3244"
         style="opacity:1;fill:#000000;fill-opacity:1;stroke-width:12.9118;stroke-dasharray:none"
         d="M 2.858334,58.136504 V 204.28768 h 15.68803 v -75.80193 h 11.186875 v -13.9881 H 18.546364 V 72.124609 H 134.04301 c 7.11595,0 11.99439,0.351428 14.63589,1.052086 4.09703,1.132112 7.38689,3.476349 9.86674,7.034247 2.53369,3.50414 3.79967,7.737348 3.79967,12.696956 0,6.846431 -2.12987,12.155692 -6.38867,15.929292 -4.25882,3.77365 -11.4549,5.66046 -21.58973,5.66046 H 52.301376 v 13.9881 h 81.822034 c 16.76568,0 28.35629,-3.47544 34.77145,-10.42963 6.41511,-7.00819 9.62321,-15.55421 9.62321,-25.635163 0,-5.876077 -1.21297,-11.267065 -3.63887,-16.172783 -2.37202,-4.90563 -5.52485,-8.705909 -9.46016,-11.40132 -3.93536,-2.749306 -8.81593,-4.609664 -14.63815,-5.580049 -4.15098,-0.7547 -10.16058,-1.130301 -18.03126,-1.130301 z M 33.157659,85.741859 V 204.28768 H 153.70048 c 7.1699,0 13.50429,-0.6739 19.003,-2.02159 5.55261,-1.34772 10.26973,-3.31631 14.15114,-5.90394 3.93537,-2.64155 7.54778,-6.22518 10.83618,-10.75352 3.28842,-4.58223 5.98396,-10.3511 8.08637,-17.30533 2.10248,-6.95424 3.15414,-14.93242 3.15414,-23.93523 0,-10.56609 -1.56429,-19.94734 -4.69097,-28.14143 -3.07281,-8.24806 -7.73469,-15.01331 -13.98809,-20.296357 -2.48447,-2.121488 -5.23909,-3.898894 -8.25838,-5.341064 0.24508,5.540379 -0.57856,11.141091 -2.44155,16.335841 2.59513,2.28483 4.9506,5.16672 7.06106,8.65598 4.09708,6.63081 6.1452,16.14451 6.1452,28.54359 0,8.94884 -1.0517,16.57798 -3.15413,22.88532 -2.04856,6.2534 -4.93183,11.24009 -8.65153,14.95981 -2.64155,2.64153 -6.20097,4.68962 -10.67536,6.14518 -4.42056,1.45555 -10.53834,2.1824 -18.35517,2.1824 H 48.845704 V 99.732204 l 86.557706,-0.02589 c 5.56514,-0.0044 18.67725,-0.0088 22.38943,0.167713 1.62822,-4.471885 1.6069,-9.592571 -0.0874,-14.039454 -5.08753,-0.125848 -24.67742,-0.02589 -25.5994,-0.02153 z" />
    </g>
  </g>
</svg>
